HIERARCHY
ROOT hip
{
	OFFSET 0.000000 0.000000 0.000000
	CHANNELS 6 Xposition Yposition Zposition Xrotation Zrotation Yrotation 
	JOINT abdomen
	{
		OFFSET 0.000000 3.422050 0.000000
		CHANNELS 3 Xrotation Zrotation Yrotation 
		JOINT chest
		{
			OFFSET 0.000000 8.486693 -0.684411
			CHANNELS 3 Xrotation Zrotation Yrotation 
			JOINT neck
			{
				OFFSET 0.000000 10.266162 -0.273764
				CHANNELS 3 Xrotation Zrotation Yrotation 
				JOINT head
				{
					OFFSET 0.000000 3.148285 0.000000
					CHANNELS 3 Xrotation Zrotation Yrotation 
					End Site
					{
						OFFSET 0.000000 3.148289 0.000000
					}
				}
			}
			JOINT lCollar
			{
				OFFSET 3.422053 6.707223 -0.821293
				CHANNELS 3 Yrotation Zrotation Xrotation 
				JOINT lShldr
				{
					OFFSET 3.285171 0.000000 0.000000
					CHANNELS 3 Zrotation Yrotation Xrotation 
					JOINT lForeArm
					{
						OFFSET 10.129278 0.000000 0.000000
						CHANNELS 3 Yrotation Zrotation Xrotation 
						JOINT lHand
						{
							OFFSET 8.486692 0.000000 0.000000
							CHANNELS 3 Zrotation Yrotation Xrotation 
							End Site
							{
								OFFSET 4.106464 0.000000 0.000000
							}
						}
					}
				}
			}
			JOINT rCollar
			{
				OFFSET -3.558935 6.707223 -0.821293
				CHANNELS 3 Yrotation Zrotation Xrotation 
				JOINT rShldr
				{
					OFFSET -3.148289 0.000000 0.000000
					CHANNELS 3 Zrotation Yrotation Xrotation 
					JOINT rForeArm
					{
						OFFSET -10.266159 0.000000 0.000000
						CHANNELS 3 Yrotation Zrotation Xrotation 
						JOINT rHand
						{
							OFFSET -8.349810 0.000000 0.000000
							CHANNELS 3 Zrotation Yrotation Xrotation 
							End Site
							{
								OFFSET -4.106464 0.000000 0.000000
							}
						}
					}
				}
			}
		}
	}
	JOINT lThigh
	{
		OFFSET 5.338403 -1.642589 1.368821
		CHANNELS 3 Xrotation Zrotation Yrotation 
		JOINT lShin
		{
			OFFSET -2.053232 -20.121670 0.000000
			CHANNELS 3 Xrotation Zrotation Yrotation 
			JOINT lFoot
			{
				OFFSET 0.000000 -19.300380 -1.231939
				CHANNELS 3 Xrotation Yrotation Zrotation 
				End Site
				{
					OFFSET 0.000000 -2.463878 4.653993
				}
			}
		}
	}
	JOINT rThigh
	{
		OFFSET -5.338403 -1.642589 1.368821
		CHANNELS 3 Xrotation Zrotation Yrotation 
		JOINT rShin
		{
			OFFSET 2.053232 -20.121670 0.000000
			CHANNELS 3 Xrotation Zrotation Yrotation 
			JOINT rFoot
			{
				OFFSET 0.000000 -19.300380 -1.231939
				CHANNELS 3 Xrotation Yrotation Zrotation 
				End Site
				{
					OFFSET 0.000000 -2.463878 4.653993
				}
			}
		}
	}
}
MOTION
Frames: 14
Frame Time: 0.022176
0.000000 43.528500 0.000000 0.000000 0.000000 0.000000 0.000000 0.000000 0.000000 0.000000 0.000000 0.000000 0.000000 0.000000 0.000000 0.000000 0.000000 0.000000 0.000000 0.000000 0.000000 0.000000 0.000000 0.000000 0.000000 0.000000 0.000000 0.000000 0.000000 0.000000 0.000000 0.000000 0.000000 0.000000 0.000000 0.000000 0.000000 0.000000 0.000000 0.000000 0.000000 0.000000 0.000000 0.000000 0.000000 0.000000 0.000000 0.000000 0.000000 0.000000 0.000000 0.000000 0.000000 0.000000 0.000000 0.000000 0.000000 0.000000 0.000000 0.000000 
0.826035 25.515091 -1.240543 28.993402 0.000000 0.000000 -15.167695 -0.031847 -0.861885 23.337999 -1.558982 -2.352336 -19.004614 0.000000 0.000000 0.358449 0.000000 0.000000 -17.001984 -10.999638 -10.001739 -50.000977 -26.000614 -0.000850 -82.153091 -43.721115 -18.102478 58.998470 -8.000916 -4.002313 16.997673 4.998590 -10.000153 49.997742 27.997362 -0.003107 82.144241 43.719261 -18.096294 -49.003860 7.998008 -4.002258 -34.075687 11.935927 10.190032 93.874611 1.749266 -0.435736 59.960743 8.976104 -14.940914 -34.113605 -12.063070 -10.275089 93.875320 -1.875702 0.515591 61.191051 -8.761580 15.056006 
0.826035 25.515091 -1.073669 28.993402 0.000000 0.000000 -15.167699 -0.031847 -0.861885 24.003590 -1.558930 -2.352315 -19.004614 0.000000 0.000000 0.431478 0.000000 0.000000 -17.001984 -10.999638 -10.001740 -50.057747 -25.667599 0.002150 -82.153091 -43.721115 -18.102478 58.445698 -8.701665 -3.629450 16.832205 5.387186 -10.009830 50.054981 27.608866 0.000529 82.144241 43.719261 -18.096294 -48.759464 8.673709 -3.757838 -33.600010 11.921077 10.216859 93.442909 1.705603 -0.446393 59.960751 8.976104 -14.940916 -33.637718 -12.048887 -10.304426 93.446747 -1.833903 0.529230 61.191059 -8.761580 15.056006 
0.826035 25.515091 -0.906796 28.993402 0.000000 0.000000 -15.167695 -0.031847 -0.861885 24.669531 -1.558878 -2.352293 -19.004614 0.000000 0.000000 0.504513 0.000000 0.000000 -17.001984 -10.999638 -10.001739 -50.114342 -25.334534 0.004777 -82.153091 -43.721119 -18.102480 57.886620 -9.399550 -3.248613 16.666653 5.775893 -10.018387 50.111988 27.220289 0.003715 82.144241 43.719261 -18.096294 -48.511501 9.348820 -3.509869 -33.124233 11.906004 10.243567 93.011131 1.661852 -0.456723 59.960743 8.976107 -14.940916 -33.161732 -12.034460 -10.333647 93.018089 -1.791994 0.542558 61.191051 -8.761580 15.056006 
0.826034 25.515091 -0.739922 28.993402 0.000000 0.000000 -15.167695 -0.031847 -0.861885 25.335796 -1.558828 -2.352272 -19.004616 0.000000 0.000000 0.577554 0.000000 0.000000 -17.001986 -10.999639 -10.001740 -50.170773 -25.001427 0.007033 -82.153091 -43.721115 -18.102478 57.321148 -10.094363 -2.859713 16.501013 6.164698 -10.025821 50.168797 26.831648 0.006458 82.144249 43.719265 -18.096298 -48.259956 10.023267 -3.258288 -32.648380 11.890711 10.270147 92.579285 1.618015 -0.466724 59.960751 8.976104 -14.940916 -32.685665 -12.019791 -10.362748 92.589363 -1.749978 0.555575 61.191059 -8.761580 15.056006 
0.826034 25.515091 -0.573048 28.993402 0.000000 0.000000 -15.167695 -0.031847 -0.861885 26.002329 -1.558777 -2.352250 -19.004614 0.000000 0.000000 0.650601 0.000000 0.000000 -17.001984 -10.999637 -10.001739 -50.227043 -24.668282 0.008923 -82.153091 -43.721111 -18.102478 56.749161 -10.785894 -2.462661 16.335268 6.553586 -10.032131 50.225384 26.442945 0.008763 82.144241 43.719261 -18.096294 -48.004707 10.696952 -3.003022 -32.172459 11.875197 10.296603 92.147369 1.574097 -0.476396 59.960743 8.976103 -14.940914 -32.209534 -12.004883 -10.391731 92.160591 -1.707859 0.568279 61.191044 -8.761580 15.056006 
0.826034 25.515091 -0.406174 28.993402 0.000000 0.000000 -15.167695 -0.031847 -0.861885 26.669090 -1.558726 -2.352226 -19.004614 0.000000 0.000000 0.723654 0.000000 0.000000 -17.001984 -10.999638 -10.001739 -50.283157 -24.335108 0.010448 -82.153091 -43.721111 -18.102478 56.170559 -11.473934 -2.057370 16.169415 6.942544 -10.037314 50.281796 26.054207 0.010631 82.144241 43.719261 -18.096294 -47.745708 11.369794 -2.744000 -31.696497 11.859471 10.322928 91.715416 1.530101 -0.485738 59.960743 8.976104 -14.940914 -31.733366 -11.989741 -10.420590 91.731773 -1.665640 0.580669 61.191051 -8.761580 15.056005 
0.826034 25.515091 -0.239300 28.993402 0.000000 0.000000 -15.167695 -0.031847 -0.861885 27.336025 -1.558676 -2.352202 -19.004614 0.000000 0.000000 0.796713 0.000000 0.000000 -17.001984 -10.999638 -10.001739 -50.339115 -24.001907 0.011613 -82.153091 -43.721111 -18.102480 55.585217 -12.158268 -1.643749 16.003437 7.331557 -10.041367 50.337997 25.665421 0.012070 82.144241 43.719261 -18.096294 -47.482876 12.041699 -2.481151 -31.220505 11.843527 10.349123 91.283432 1.486030 -0.494749 59.960743 8.976104 -14.940914 -31.257162 -11.974360 -10.449319 91.302917 -1.623325 0.592743 61.191051 -8.761580 15.056006 
0.826034 25.515091 -0.072426 28.993402 0.000000 0.000000 -15.167695 -0.031847 -0.861885 28.003103 -1.558626 -2.352178 -19.004614 0.000000 0.000000 0.869777 0.000000 0.000000 -17.001984 -10.999638 -10.001739 -50.394924 -23.668686 0.012420 -82.153091 -43.721115 -18.102478 54.993031 -12.838676 -1.221716 15.837322 7.720610 -10.044283 50.394009 25.276600 0.013081 82.144241 43.719261 -18.096294 -47.216141 12.712580 -2.214398 -30.744492 11.827367 10.375179 90.851425 1.441889 -0.503427 59.960751 8.976104 -14.940916 -30.780945 -11.958746 -10.477921 90.874054 -1.580917 0.604500 61.191051 -8.761580 15.056006 
0.826034 25.515091 0.094448 28.993402 0.000000 0.000000 -15.167695 -0.031847 -0.861885 28.670263 -1.558576 -2.352153 -19.004616 0.000000 0.000000 0.942847 0.000000 0.000000 -17.001984 -10.999639 -10.001739 -50.450607 -23.335461 0.012871 -82.153091 -43.721119 -18.102476 54.393909 -13.514949 -0.791185 15.671060 8.109693 -10.046064 50.449837 24.887772 0.013671 82.144257 43.719265 -18.096302 -46.945438 13.382349 -1.943668 -30.268496 11.810997 10.401099 90.419395 1.397681 -0.511772 59.960743 8.976104 -14.940914 -30.304729 -11.942898 -10.506384 90.445190 -1.538420 0.615941 61.191051 -8.761581 15.056006 
0.826034 25.515091 0.261322 28.993402 0.000000 0.000000 -15.167694 -0.031847 -0.861885 29.337477 -1.558526 -2.352128 -19.004616 0.000000 0.000000 1.015922 0.000000 0.000000 -17.001984 -10.999638 -10.001739 -50.506142 -23.002228 0.012969 -82.153107 -43.721119 -18.102478 53.787743 -14.186868 -0.352074 15.504645 8.498791 -10.046709 50.505501 24.498930 0.013842 82.144249 43.719269 -18.096296 -46.670673 14.050910 -1.668881 -29.792511 11.794413 10.426878 89.987396 1.353411 -0.519784 59.960751 8.976105 -14.940916 -29.828537 -11.926818 -10.534714 90.016327 -1.495837 0.627063 61.191051 -8.761581 15.056006 
0.826034 25.515091 0.428196 28.993399 0.000000 0.000000 -15.167695 -0.031847 -0.861885 30.004686 -1.558477 -2.352102 -19.004612 0.000000 0.000000 1.089004 0.000000 0.000000 -17.001984 -10.999638 -10.001739 -50.561523 -22.668987 0.012717 -82.153076 -43.721111 -18.102474 53.174423 -14.854209 0.095699 15.338058 8.887888 -10.046206 50.560974 24.110086 0.013599 82.144241 43.719261 -18.096296 -46.391758 14.718170 -1.389960 -29.316566 11.777622 10.452517 89.555374 1.309081 -0.527462 59.960735 8.976105 -14.940914 -29.352383 -11.910509 -10.562904 89.587463 -1.453172 0.637865 61.191051 -8.761580 15.056006 
0.826034 25.515091 0.595070 28.993402 0.000000 0.000000 -15.167695 -0.031847 -0.861885 30.671850 -1.558428 -2.352075 -19.004612 0.000000 0.000000 1.162090 0.000000 0.000000 -17.001984 -10.999637 -10.001739 -50.616787 -22.335754 0.012117 -82.153084 -43.721111 -18.102474 52.553867 -15.516756 0.552209 15.171295 9.276972 -10.044560 50.616306 23.721258 0.012948 82.144241 43.719261 -18.096294 -46.108650 15.384045 -1.106825 -28.840672 11.760626 10.478006 89.123413 1.264696 -0.534805 59.960743 8.976103 -14.940914 -28.876287 -11.893974 -10.590956 89.158630 -1.410429 0.648347 61.191051 -8.761579 15.056005 
0.826034 25.515091 0.761944 28.993402 0.000000 0.000000 -15.167695 -0.031847 -0.861885 31.338926 -1.558380 -2.352048 -19.004614 0.000000 0.000000 1.235182 0.000000 0.000000 -17.001984 -10.999638 -10.001739 -50.671913 -22.002539 0.011170 -82.153091 -43.721115 -18.102478 51.925961 -16.174286 1.017534 15.004339 9.666029 -10.041762 50.671452 23.332441 0.011886 82.144226 43.719261 -18.096291 -45.821232 16.048435 -0.819392 -28.364847 11.743421 10.503348 88.691460 1.220259 -0.541812 59.960743 8.976104 -14.940914 -28.400246 -11.877208 -10.618856 88.729866 -1.367611 0.658508 61.191051 -8.761580 15.056006 
